# xmcd
#
# Track frame offsets:
#	150
#	18837
#	30830
#	48067
#	62487
#	77955
#	94445
#	106320
#	125895
#	142200
#	160310
#	181200
# Disc length: 2676 seconds
# Revision: 11
# Processed by: cddbd v1.5.2PL0 Copyright (c) Steve Scherf et al.
#
# Submitted via: libkcddb 0.10
#
DISCID=9b0a720c
DTITLE=未知 - 未知
DYEAR=1900
DGENRE=Unknown
TTITLE0=トラック 1
TTITLE1=トラック 2
TTITLE2=トラック 3
TTITLE3=トラック 4
TTITLE4=トラック 5
TTITLE5=トラック 6
TTITLE6=トラック 7
TTITLE7=トラック 8
TTITLE8=トラック 9
TTITLE9=トラック 10
TTITLE10=トラック 11
TTITLE11=トラック 12
EXTD=
EXTT0=
EXTT1=
EXTT2=
EXTT3=
EXTT4=
EXTT5=
EXTT6=
EXTT7=
EXTT8=
EXTT9=
EXTT10=
EXTT11=
PLAYORDER=
